<svg id="LogoOp_01a_5_copia" data-name="LogoOp_01a 5 copia" xmlns="http://www.w3.org/2000/svg" viewBox="0 0 303.02 303.02"><defs><style>.cls-1{fill:#fff;}.cls-1,.cls-3,.cls-7{stroke:#000;}.cls-1,.cls-3,.cls-4,.cls-7{stroke-miterlimit:10;}.cls-2{fill-rule:evenodd;}.cls-3,.cls-7{fill:none;}.cls-3{stroke-width:7px;}.cls-4{stroke:#be894a;stroke-width:0.1px;}.cls-5{fill:#be894a;}.cls-6{opacity:0.99;}.cls-7{stroke-width:0.3px;}</style></defs><title>icoMeetuoBikers</title><rect class="cls-1" x="0.5" y="0.5" width="302.02" height="302.02"/><g id="Capa_30_copia_3" data-name="Capa 30 copia 3"><path class="cls-2" d="M671.34,420.21A54.68,54.68,0,1,0,729.48,471,54.56,54.56,0,0,0,671.34,420.21Zm6.87,98.44a44,44,0,1,1,40.67-46.94A43.93,43.93,0,0,1,678.21,518.64Z" transform="translate(-427.31 -301)"/><path class="cls-2" d="M478.26,433.61a54.68,54.68,0,1,0,58.14,50.76A54.56,54.56,0,0,0,478.26,433.61ZM485.14,532a44,44,0,1,1,40.67-46.94A43.93,43.93,0,0,1,485.14,532Z" transform="translate(-427.31 -301)"/><path class="cls-2" d="M673.08,456.65a17.16,17.16,0,1,0,18.25,15.94A17.13,17.13,0,0,0,673.08,456.65Zm2.17,31a14,14,0,1,1,12.89-14.88A13.93,13.93,0,0,1,675.25,487.69Z" transform="translate(-427.31 -301)"/><path class="cls-2" d="M478.62,470.74a17.16,17.16,0,1,0,18.25,15.94A17.13,17.13,0,0,0,478.62,470.74Zm2.17,31a14,14,0,1,1,12.9-14.88A13.93,13.93,0,0,1,480.78,501.78Z" transform="translate(-427.31 -301)"/><rect x="556.32" y="458.7" width="2.93" height="46.71" transform="translate(-603.93 245.46) rotate(-45.85)"/><circle cx="558.67" cy="481.47" r="9.77" transform="translate(-458.09 -262.79) rotate(-3.81)"/><path d="M543.76,437.78l-4.12,4a2.06,2.06,0,0,1-2.82-.1l-.26-.27a1.86,1.86,0,0,1,.15-2.7l4.12-4a2.06,2.06,0,0,1,2.82.1l.26.27A1.86,1.86,0,0,1,543.76,437.78Z" transform="translate(-427.31 -301)"/><path d="M546,437.3l-1.31,1.14a7.66,7.66,0,0,1-1.44-1.19l-1.81-1.9a10.08,10.08,0,0,1-1.23-1.61l1.31-1.14a2.06,2.06,0,0,1,2.82.1l1.81,1.9A1.86,1.86,0,0,1,546,437.3Z" transform="translate(-427.31 -301)"/><path d="M558.29,423.13l3.36-4a1.85,1.85,0,0,0-.14-2.7l-.29-.24a2.07,2.07,0,0,0-2.82.18l-3.36,4a1.85,1.85,0,0,0,.14,2.7l.29.24A2.07,2.07,0,0,0,558.29,423.13Z" transform="translate(-427.31 -301)"/><path d="M557.81,425.32l1.18-1.26a7.5,7.5,0,0,0-1.26-1.36l-2-1.71a10.54,10.54,0,0,0-1.7-1.16l-1.18,1.26a1.85,1.85,0,0,0,.14,2.7l2,1.71A2.07,2.07,0,0,0,557.81,425.32Z" transform="translate(-427.31 -301)"/><path d="M546.72,437.58l-.07.07a.79.79,0,0,1-1.14,0L541,432.86a.85.85,0,0,1,0-1.18l.07-.07a.79.79,0,0,1,1.14,0l4.55,4.78A.85.85,0,0,1,546.72,437.58Z" transform="translate(-427.31 -301)"/><path d="M548.32,435.89l0,.08a.79.79,0,0,1-1.11.29l-5.75-3.54a.85.85,0,0,1-.28-1.14l0-.08a.79.79,0,0,1,1.11-.29l5.75,3.54A.85.85,0,0,1,548.32,435.89Z" transform="translate(-427.31 -301)"/><path d="M548.48,435.8l-.07.07a.79.79,0,0,1-1.14,0l-4.55-4.78a.85.85,0,0,1,0-1.18l.07-.07a.79.79,0,0,1,1.14,0l4.55,4.78A.85.85,0,0,1,548.48,435.8Z" transform="translate(-427.31 -301)"/><path d="M550.08,434.11l0,.08a.79.79,0,0,1-1.11.29l-5.75-3.54a.85.85,0,0,1-.28-1.14l0-.08a.79.79,0,0,1,1.11-.29L549.8,433A.85.85,0,0,1,550.08,434.11Z" transform="translate(-427.31 -301)"/><path d="M550.24,434l-.07.07a.79.79,0,0,1-1.14,0l-4.55-4.78a.85.85,0,0,1,0-1.18l.07-.07a.79.79,0,0,1,1.14,0l4.55,4.78A.85.85,0,0,1,550.24,434Z" transform="translate(-427.31 -301)"/><path d="M551.84,432.34l0,.08a.79.79,0,0,1-1.11.29l-5.75-3.54a.85.85,0,0,1-.28-1.14l0-.08a.79.79,0,0,1,1.11-.29l5.75,3.54A.85.85,0,0,1,551.84,432.34Z" transform="translate(-427.31 -301)"/><path d="M552,432.25l-.07.07a.79.79,0,0,1-1.14,0l-4.55-4.78a.85.85,0,0,1,0-1.18l.07-.07a.79.79,0,0,1,1.14,0l4.55,4.78A.85.85,0,0,1,552,432.25Z" transform="translate(-427.31 -301)"/><path d="M553.6,430.56l0,.08a.79.79,0,0,1-1.11.29l-5.75-3.54a.85.85,0,0,1-.28-1.14l0-.08a.79.79,0,0,1,1.11-.29l5.75,3.54A.85.85,0,0,1,553.6,430.56Z" transform="translate(-427.31 -301)"/><path d="M553.76,430.48l-.07.07a.79.79,0,0,1-1.14,0L548,425.75a.85.85,0,0,1,0-1.18l.07-.07a.79.79,0,0,1,1.14,0l4.55,4.78A.85.85,0,0,1,553.76,430.48Z" transform="translate(-427.31 -301)"/><path d="M555.36,428.79l0,.08a.79.79,0,0,1-1.11.29l-5.75-3.54a.85.85,0,0,1-.28-1.14l0-.08a.79.79,0,0,1,1.11-.29l5.75,3.54A.85.85,0,0,1,555.36,428.79Z" transform="translate(-427.31 -301)"/><path d="M555.51,428.7l-.07.07a.79.79,0,0,1-1.14,0L549.75,424a.85.85,0,0,1,0-1.18l.07-.07a.79.79,0,0,1,1.14,0l4.55,4.78A.85.85,0,0,1,555.51,428.7Z" transform="translate(-427.31 -301)"/><path d="M557.11,427l0,.08a.79.79,0,0,1-1.11.29l-5.75-3.54a.85.85,0,0,1-.28-1.14l0-.08a.79.79,0,0,1,1.11-.29l5.75,3.54A.85.85,0,0,1,557.11,427Z" transform="translate(-427.31 -301)"/><path d="M557.27,426.93l-.07.07a.79.79,0,0,1-1.14,0l-4.55-4.78a.85.85,0,0,1,0-1.18l.07-.07a.79.79,0,0,1,1.14,0l4.55,4.78A.85.85,0,0,1,557.27,426.93Z" transform="translate(-427.31 -301)"/><path d="M537.5,434.18l3,2.36a.34.34,0,0,1,.06.48l-.71.92a9.48,9.48,0,0,1-2.72.39l-2.38-3.91c-.09-.15-.17-.33-.06-.48l1.85-2.38a.34.34,0,0,1,.48-.06l1,.81a.34.34,0,0,1,.06.48l-.71.92A.34.34,0,0,0,537.5,434.18Z" transform="translate(-427.31 -301)"/><path d="M538.1,426.89h4.18a1.16,1.16,0,0,1,1.16,1.16v.26a1.16,1.16,0,0,1-1.16,1.16H538.1a1.29,1.29,0,0,1-1.29-1.29v0a1.29,1.29,0,0,1,1.29-1.29Z" transform="matrix(0.61, -0.79, 0.79, 0.61, -556.66, 291.12)"/><path d="M536.61,427.43h4.53a2.1,2.1,0,0,1,2.1,2.1v0a2.1,2.1,0,0,1-2.1,2.1h-4.53a1.23,1.23,0,0,1-1.23-1.23v-1.73A1.23,1.23,0,0,1,536.61,427.43Z" transform="matrix(0.61, -0.79, 0.79, 0.61, -558.04, 290.99)"/><path class="cls-3" d="M529.3,444.81C517.13,456.09,480.08,487,480.08,487l-.2,1.76,60.24-5.08c1.87-.24,5-.17,7.56-1.44l4.75-3.36,1.3-1.57" transform="translate(-427.31 -301)"/><path d="M617.29,374.17l-6.15,3.09,0,1-43.89,28.58-28.66-1.67-2-5.35-4.47,2,6.15,16.47L543,419l-.74-2.12,20.28,2.46L552.2,439.61s-6.64-1.22-7.41,3.58c-.67,4.22,4.13,5.17,4.13,5.17L548,451c2.81,6.86,7.11,27.6,7.11,27.6l-.12,0,2.23,4.85c3.08-.31,8-.7,8-.7l53.65-89.4,6.47-6.11Zm-67.44,41.35a.47.47,0,0,1-.53.41l-5.56-.7a.47.47,0,0,1-.41-.53l0-.2a.47.47,0,0,1,.53-.41l5.56.7a.47.47,0,0,1,.41.53Zm8.57,1.07a.47.47,0,0,1-.53.41l-5.56-.7a.47.47,0,0,1-.41-.53l0-.2a.47.47,0,0,1,.53-.41l5.56.7a.47.47,0,0,1,.41.53Zm28.8,13.49c-10.92,18.32-26,49-26,49l-7-29.71S565.1,421.21,575.09,411c8.71-8.93,38-26.77,38-26.77l1.61,2.81S600.63,407.57,587.22,430.08Z" transform="translate(-427.31 -301)"/><path class="cls-4" d="M546.75,440.46l-8.65-.09-8.56,1.24a3.1,3.1,0,0,0-2.89,3.3v.1a3.1,3.1,0,0,0,3.3,2.89l8.65.09,8.56-1.24a3.1,3.1,0,0,0,2.89-3.3v-.1A3.1,3.1,0,0,0,546.75,440.46Zm-17.22,6.05a1.74,1.74,0,1,1,1.62-1.85A1.74,1.74,0,0,1,529.54,446.52Zm5.06-.11h-2.07a.55.55,0,0,1-.48-.51l-.17-2.57a.55.55,0,0,1,.41-.57l1.94-.35a.55.55,0,0,1,.67.49l.3,2.93A.55.55,0,0,1,534.6,446.41Zm3.83.27a2.49,2.49,0,1,1,2.32-2.65A2.49,2.49,0,0,1,538.43,446.68Zm6.27-1.63a.55.55,0,0,1-.41.56l-2,.28a.55.55,0,0,1-.68-.49l-.09-2.94a.55.55,0,0,1,.6-.58l2,.09a.55.55,0,0,1,.49.51Zm2.74.27a1.74,1.74,0,1,1,1.62-1.85A1.74,1.74,0,0,1,547.44,445.32Z" transform="translate(-427.31 -301)"/><path class="cls-5" d="M529.3,443a1.74,1.74,0,1,0,1.85,1.62A1.74,1.74,0,0,0,529.3,443Zm.19,2.89a1.16,1.16,0,1,1,1.08-1.23A1.16,1.16,0,0,1,529.5,445.94Z" transform="translate(-427.31 -301)"/><circle cx="529.42" cy="444.78" r="1.16" transform="matrix(1, -0.07, 0.07, 1, -455.71, -264.82)"/><path class="cls-5" d="M547.21,441.85a1.74,1.74,0,1,0,1.85,1.62A1.74,1.74,0,0,0,547.21,441.85Zm.19,2.89a1.16,1.16,0,1,1,1.08-1.23A1.16,1.16,0,0,1,547.4,444.74Z" transform="translate(-427.31 -301)"/><circle cx="547.33" cy="443.59" r="1.16" transform="translate(-455.59 -263.63) rotate(-3.81)"/><path class="cls-5" d="M538.1,441.7a2.49,2.49,0,1,0,2.65,2.32A2.49,2.49,0,0,0,538.1,441.7Zm.29,4.31a1.83,1.83,0,1,1,1.7-1.95A1.83,1.83,0,0,1,538.38,446Z" transform="translate(-427.31 -301)"/><circle cx="538.26" cy="444.19" r="1.83" transform="translate(-455.65 -264.23) rotate(-3.81)"/><path class="cls-5" d="M533.87,436.44l2.65-.18c1-.06,1-1.56,0-1.5l-2.65.18c-1,.06-1,1.56,0,1.5Z" transform="translate(-427.31 -301)"/><path d="M598.74,371.75l6.42-2.31a2.27,2.27,0,0,0,1.24-3,7,7,0,0,1-.07-3.25c1-.08,2.05-.53,2.23.13l-.14.37c.15,1.28.34.77.36,1,0,0-.28.88.89,3.08.48.91-.4,1.66-1.41,1.86,0,0-7.68,2.36-8.32,2.6s-.2.55-.93.81S597.59,371.72,598.74,371.75Z" transform="translate(-427.31 -301)"/><rect x="596.24" y="357.86" width="4.95" height="14.42" rx="1.08" ry="1.08" transform="translate(495.86 -557.6) rotate(86.19)"/><path class="cls-6" d="M535.34,397.42s9.22-1.92,14.34-4c2.7-1.12,1.2-5.92-1.52-5.44-6.45,1.15-15.74,1.71-18,1-8.85-3-15.73.43-15.46,4.28.56,8,16.3,5,16.3,5l4.53,12.06,4.46-.64Z" transform="translate(-427.31 -301)"/><path d="M646.69,421.57l-1.84-.84L634,404.11l.09-1.73-18.26-28.79-1.08-.4-.69-1.11a2.49,2.49,0,0,1,0-2.26l1.61-2.11a3.5,3.5,0,0,0-1.91-5.18,5.53,5.53,0,0,0-2.49,0l-8.16.24,2,3.13h6.79c.51-.1.82.25.58.79l-3.39,4.39s-.41,1.43-.43,1.47a1.86,1.86,0,0,0,.08,1.55l1.11,1.76-.08,1.34,17.77,28.65,1.78,1,11,16.77.07,1.95,29,46.89s-1.17.6-.55,1.47,1.54.1,1.54.1l1,1.7s-1.18.52-.63,1.43,1.67.06,1.67.06l.79,1.45,6.57-3Zm22.92,52.29a.29.29,0,1,1,.27-.31A.29.29,0,0,1,669.6,473.86Zm2,3.22a.29.29,0,1,1,.27-.31A.29.29,0,0,1,671.57,477.08Z" transform="translate(-427.31 -301)"/><circle cx="478.19" cy="487.81" r="6.45" transform="translate(-458.69 -268.13) rotate(-3.81)"/><circle cx="674.35" cy="474.86" r="6.45" transform="translate(-497.33 -181.33) rotate(-9.64)"/><line class="cls-7" x1="110.24" y1="162.86" x2="110.54" y2="166.95"/><line class="cls-7" x1="109.55" y1="165.79" x2="109.66" y2="167.01"/><line class="cls-7" x1="111.13" y1="162.8" x2="111.43" y2="166.89"/><line class="cls-7" x1="112.01" y1="162.74" x2="112.31" y2="166.83"/><line class="cls-7" x1="112.89" y1="162.68" x2="113.19" y2="166.77"/><line class="cls-7" x1="113.78" y1="162.62" x2="114.08" y2="166.71"/><line class="cls-7" x1="114.66" y1="162.57" x2="114.96" y2="166.66"/><line class="cls-7" x1="115.55" y1="162.51" x2="115.85" y2="166.6"/><line class="cls-7" x1="116.43" y1="162.45" x2="116.73" y2="166.54"/><line class="cls-7" x1="117.32" y1="162.39" x2="117.62" y2="166.48"/><line class="cls-7" x1="118.2" y1="162.33" x2="118.5" y2="166.42"/><line class="cls-7" x1="119.08" y1="162.27" x2="119.38" y2="166.36"/><line class="cls-7" x1="119.97" y1="162.21" x2="120.12" y2="164.09"/><path d="M547,466.86l-11.29.75c.6-1.41,1.11-2.63,1.35-3.24l11.55-.77C548.37,464.09,547.36,466.22,547,466.86Z" transform="translate(-427.31 -301)"/><line class="cls-7" x1="142" y1="196.05" x2="142.3" y2="200.14"/><line class="cls-7" x1="141.3" y1="198.98" x2="141.41" y2="200.19"/><line class="cls-7" x1="142.88" y1="195.99" x2="143.18" y2="200.08"/><line class="cls-7" x1="143.77" y1="195.93" x2="144.07" y2="200.02"/><line class="cls-7" x1="144.65" y1="195.87" x2="144.95" y2="199.96"/><line class="cls-7" x1="145.53" y1="195.81" x2="145.83" y2="199.9"/><line class="cls-7" x1="146.42" y1="195.75" x2="146.72" y2="199.84"/><line class="cls-7" x1="147.3" y1="195.69" x2="147.6" y2="199.78"/><line class="cls-7" x1="148.19" y1="195.63" x2="148.49" y2="199.72"/><line class="cls-7" x1="149.07" y1="195.57" x2="149.37" y2="199.66"/><line class="cls-7" x1="149.96" y1="195.51" x2="150.25" y2="199.61"/><line class="cls-7" x1="150.84" y1="195.46" x2="151.14" y2="199.55"/><line class="cls-7" x1="151.72" y1="195.4" x2="151.88" y2="197.28"/><path d="M578.78,500l-11.29.75c.6-1.41,1.11-2.63,1.35-3.24l11.55-.77C580.13,497.27,579.12,499.4,578.78,500Z" transform="translate(-427.31 -301)"/></g></svg>